# xmcd
#
# Track frame offsets: 
#        150
#        17430
#        33700
#        48235
#        63467
#        83276
#        98877
#        116554
#        130581
#        149129
#        165998
#        179739
#        193118
#        210941
#
# Disc length: 3002 seconds
#
# Revision: 3
# Processed by: cddbd v1.5.2PL0 Copyright (c) Steve Scherf et al.
# Submitted via: ExactAudioCopy v1.1
#
DISCID=ba0bb80e
DTITLE=Paul Thorn - Ain't Love Strange
DYEAR=2000
DGENRE=Rock and Roll, Blues Rock
TTITLE0=Ain't Love Strange
TTITLE1=Blue Stew
TTITLE2=I Have A Good Day
TTITLE3=Burn Down The Trailer Park
TTITLE4=What Do You Take Me For?
TTITLE5=Fabio and Liberace
TTITLE6=Mood Ring
TTITLE7=Black Rainbow
TTITLE8=Where Was I?
TTITLE9=A Lot Of Good Reasons
TTITLE10=Help Me Out, Hook Me Up
TTITLE11=Accept My Love
TTITLE12=Ain't Gonna Beg
TTITLE13=That's All I Know, Right Now
EXTD=
EXTT0=
EXTT1=
EXTT2=
EXTT3=
EXTT4=
EXTT5=
EXTT6=
EXTT7=
EXTT8=
EXTT9=
EXTT10=
EXTT11=
EXTT12=
EXTT13=
PLAYORDER=
